<svg width="1920" height="1080" xmlns="http://www.w3.org/2000/svg">
  <defs>
    <linearGradient id="grad2" x1="0%" y1="0%" x2="100%" y2="100%">
      <stop offset="0%" style="stop-color:#3d7c47;stop-opacity:0.9" />
      <stop offset="50%" style="stop-color:#2d5f37;stop-opacity:0.85" />
      <stop offset="100%" style="stop-color:#8B4513;stop-opacity:0.8" />
    </linearGradient>
    <pattern id="dots" width="40" height="40" patternUnits="userSpaceOnUse">
      <circle cx="20" cy="20" r="2" fill="rgba(255,255,255,0.1)"/>
    </pattern>
  </defs>
  
  <!-- Background -->
  <rect width="1920" height="1080" fill="url(#grad2)"/>
  <rect width="1920" height="1080" fill="url(#dots)"/>
  
  <!-- Interior design elements -->
  <!-- Lamp -->
  <g opacity="0.15" transform="translate(1500, 100)">
    <ellipse cx="50" cy="120" rx="80" ry="20" fill="#fff"/>
    <path d="M 50 120 L 30 0 L 70 0 Z" fill="#fff"/>
    <rect x="45" y="120" width="10" height="200" fill="#fff"/>
    <circle cx="50" cy="330" r="30" fill="#fff"/>
  </g>
  
  <!-- Plant -->
  <g opacity="0.12" transform="translate(250, 650)">
    <rect x="40" y="200" width="60" height="100" rx="30" fill="#fff"/>
    <ellipse cx="70" cy="150" rx="90" ry="100" fill="#fff"/>
    <ellipse cx="50" cy="120" rx="70" ry="80" fill="#fff" opacity="0.8"/>
    <ellipse cx="90" cy="130" rx="60" ry="70" fill="#fff" opacity="0.7"/>
  </g>
  
  <!-- Picture frame -->
  <g opacity="0.1" transform="translate(900, 200)">
    <rect x="0" y="0" width="300" height="400" rx="10" fill="none" stroke="#fff" stroke-width="15"/>
    <rect x="30" y="30" width="240" height="340" fill="#fff" opacity="0.3"/>
  </g>
  
  <!-- Bookshelf silhouette -->
  <g opacity="0.13" transform="translate(100, 300)">
    <rect x="0" y="0" width="250" height="500" fill="none" stroke="#fff" stroke-width="8"/>
    <line x1="0" y1="100" x2="250" y2="100" stroke="#fff" stroke-width="8"/>
    <line x1="0" y1="200" x2="250" y2="200" stroke="#fff" stroke-width="8"/>
    <line x1="0" y1="300" x2="250" y2="300" stroke="#fff" stroke-width="8"/>
    <line x1="0" y1="400" x2="250" y2="400" stroke="#fff" stroke-width="8"/>
  </g>
  
  <!-- Decorative circles -->
  <circle cx="1650" cy="850" r="180" fill="rgba(255,255,255,0.08)"/>
  <circle cx="450" cy="150" r="130" fill="rgba(255,255,255,0.06)"/>
  <circle cx="1750" cy="400" r="100" fill="rgba(255,255,255,0.07)"/>
</svg>
